<svg width="55" height="55" viewBox="0 0 55 55" fill="none" xmlns="http://www.w3.org/2000/svg">
<path fill-rule="evenodd" clip-rule="evenodd" d="M7.79175 9.16675C7.79175 8.40736 8.40736 7.79175 9.16675 7.79175H22.9167C23.6761 7.79175 24.2917 8.40736 24.2917 9.16675C24.2917 9.92614 23.6761 10.5417 22.9167 10.5417H9.16675C8.40736 10.5417 7.79175 9.92614 7.79175 9.16675Z" fill="#1740A9"/>
<path fill-rule="evenodd" clip-rule="evenodd" d="M30.7083 9.16675C30.7083 8.40736 31.3239 7.79175 32.0833 7.79175H45.8333C46.5926 7.79175 47.2083 8.40736 47.2083 9.16675C47.2083 9.92614 46.5926 10.5417 45.8333 10.5417H32.0833C31.3239 10.5417 30.7083 9.92614 30.7083 9.16675Z" fill="#1740A9"/>
<path fill-rule="evenodd" clip-rule="evenodd" d="M13.7501 19.7083C11.9782 19.7083 10.5417 21.1447 10.5417 22.9166V41.2499C10.5417 43.0218 11.9782 44.4583 13.7501 44.4583H18.3334C20.1053 44.4583 21.5417 43.0218 21.5417 41.2499V22.9166C21.5417 21.1447 20.1053 19.7083 18.3334 19.7083H13.7501ZM7.79175 22.9166C7.79175 19.6259 10.4594 16.9583 13.7501 16.9583H18.3334C21.6241 16.9583 24.2917 19.6259 24.2917 22.9166V41.2499C24.2917 44.5406 21.6241 47.2083 18.3334 47.2083H13.7501C10.4594 47.2083 7.79175 44.5406 7.79175 41.2499V22.9166Z" fill="#1740A9"/>
<path fill-rule="evenodd" clip-rule="evenodd" d="M36.6666 19.7083C34.8947 19.7083 33.4583 21.1447 33.4583 22.9166V27.4999C33.4583 29.2718 34.8947 30.7083 36.6666 30.7083H41.2499C43.0218 30.7083 44.4583 29.2718 44.4583 27.4999V22.9166C44.4583 21.1447 43.0218 19.7083 41.2499 19.7083H36.6666ZM30.7083 22.9166C30.7083 19.6259 33.3759 16.9583 36.6666 16.9583H41.2499C44.5406 16.9583 47.2083 19.6259 47.2083 22.9166V27.4999C47.2083 30.7906 44.5406 33.4583 41.2499 33.4583H36.6666C33.3759 33.4583 30.7083 30.7906 30.7083 27.4999V22.9166Z" fill="#1740A9"/>
</svg>
